<svg xmlns="http://www.w3.org/2000/svg" width="900" height="520" viewBox="0 0 900 520"><rect width="900" height="520" fill="#e2e8f0"/><path d="M0 120h900M0 260h900M0 400h900M150 0v520M360 0v520M580 0v520M760 0v520" stroke="#cbd5e1" stroke-width="8"/><path d="M40 70c120 40 180 40 320 0s220-40 500 10" fill="none" stroke="#94a3b8" stroke-width="18" stroke-linecap="round"/><path d="M70 470c140-90 250-120 420-70 90 25 180 18 330-35" fill="none" stroke="#94a3b8" stroke-width="20" stroke-linecap="round"/><circle cx="455" cy="255" r="54" fill="#0ea5a4"/><circle cx="455" cy="255" r="24" fill="#ffffff"/><path d="M455 145c46 0 84 34 84 78 0 54-84 150-84 150s-84-96-84-150c0-44 38-78 84-78z" fill="#0f172a" opacity="0.18"/><text x="495" y="245" font-family="Arial, Helvetica, sans-serif" font-size="28" font-weight="700" fill="#0f172a">Nexa Studio</text><text x="495" y="280" font-family="Arial, Helvetica, sans-serif" font-size="20" fill="#334155">Calle Inventada 18, Madrid</text></svg>